<svg xmlns="http://www.w3.org/2000/svg" viewBox="0 0 180 180" fill="#6B4423">
  <path d="M90 15c-24.3 0-44 19.7-44 44 0 8.8 2.6 17 7.1 23.9C40.6 92.3 32 106.5 32 122.5c0 13.2 10.8 24 24 24 8 0 15.1-3.9 19.5-10 4.4 6.1 11.5 10 19.5 10s15.1-3.9 19.5-10c4.4 6.1 11.5 10 19.5 10 13.2 0 24-10.8 24-24 0-16-8.6-30.2-21.1-39.6 4.5-6.9 7.1-15.1 7.1-23.9 0-24.3-19.7-44-44-44zm0 20c13.2 0 24 10.8 24 24s-10.8 24-24 24-24-10.8-24-24 10.8-24 24-24zM56 104c8.8 0 16 7.2 16 16s-7.2 16-16 16-16-7.2-16-16 7.2-16 16-16zm39 0c8.8 0 16 7.2 16 16s-7.2 16-16 16-16-7.2-16-16 7.2-16 16-16zm29 0c8.8 0 16 7.2 16 16s-7.2 16-16 16-16-7.2-16-16 7.2-16 16-16z"/>
</svg>
